<svg width="28" height="28" viewBox="0 0 28 28" fill="none" xmlns="http://www.w3.org/2000/svg">
<path d="M18.375 24.5C17.4085 24.5 16.625 23.7165 16.625 22.75C16.625 21.7835 17.4085 21 18.375 21C19.3415 21 20.125 21.7835 20.125 22.75C20.125 23.7165 19.3415 24.5 18.375 24.5Z" fill="#4871FF"/>
<path d="M6.125 24.5C5.1585 24.5 4.375 23.7165 4.375 22.75C4.375 21.7835 5.1585 21 6.125 21C7.0915 21 7.875 21.7835 7.875 22.75C7.875 23.7165 7.0915 24.5 6.125 24.5Z" fill="#4871FF"/>
<path d="M3.01875 6.60516C3.14168 6.45479 3.29655 6.33369 3.47211 6.25064C3.64768 6.16758 3.83953 6.12467 4.03375 6.125H20.6779L21.0131 4.22297C21.0489 4.02037 21.1549 3.83684 21.3125 3.70462C21.4701 3.57241 21.6693 3.49996 21.875 3.5H25.375C25.6071 3.5 25.8296 3.59219 25.9937 3.75628C26.1578 3.92038 26.25 4.14294 26.25 4.375C26.25 4.60706 26.1578 4.82962 25.9937 4.99372C25.8296 5.15781 25.6071 5.25 25.375 5.25H22.6089L20.1119 19.402C20.0761 19.6046 19.9701 19.7882 19.8125 19.9204C19.6549 20.0526 19.4557 20.125 19.25 20.125H5.25C5.01794 20.125 4.79538 20.0328 4.63128 19.8687C4.46719 19.7046 4.375 19.4821 4.375 19.25C4.375 19.0179 4.46719 18.7954 4.63128 18.6313C4.79538 18.4672 5.01794 18.375 5.25 18.375H18.5161L18.8245 16.625H5.60875C5.3053 16.6246 5.01131 16.5194 4.77652 16.3272C4.54173 16.1349 4.38057 15.8675 4.32031 15.5701L2.74531 7.69508C2.70736 7.50449 2.7122 7.30786 2.75949 7.11937C2.80678 6.93089 2.89533 6.75526 3.01875 6.60516Z" fill="#4871FF"/>
</svg>
