<svg width="11" height="14" viewBox="0 0 11 14" fill="none" xmlns="http://www.w3.org/2000/svg">
<path d="M5.08008 0C2.27886 0 0 2.27886 0 5.08008C0 6.00226 0.413578 6.99407 0.43091 7.03591C0.564486 7.35296 0.828053 7.84543 1.01811 8.1341L4.50125 13.4117C4.64379 13.6281 4.85476 13.7521 5.08008 13.7521C5.30539 13.7521 5.51637 13.6281 5.65891 13.412L9.14235 8.1341C9.3327 7.84543 9.59597 7.35296 9.72954 7.03591C9.74688 6.99437 10.1602 6.00256 10.1602 5.08008C10.1602 2.27886 7.88129 0 5.08008 0ZM9.1785 6.80402C9.05927 7.0882 8.81394 7.54631 8.6433 7.80509L5.15987 13.083C5.09114 13.1873 5.06932 13.1873 5.00059 13.083L1.51715 7.80509C1.34652 7.54631 1.10118 7.0879 0.981949 6.80372C0.976869 6.79147 0.597656 5.87855 0.597656 5.08008C0.597656 2.60847 2.60847 0.597656 5.08008 0.597656C7.55169 0.597656 9.5625 2.60847 9.5625 5.08008C9.5625 5.87974 9.18239 6.79505 9.1785 6.80402Z" fill="#EEF2FD"/>
<path d="M5.08008 2.39093C3.59699 2.39093 2.39062 3.5976 2.39062 5.08038C2.39062 6.56317 3.59699 7.76984 5.08008 7.76984C6.56316 7.76984 7.76953 6.56317 7.76953 5.08038C7.76953 3.5976 6.56316 2.39093 5.08008 2.39093ZM5.08008 7.17218C3.9269 7.17218 2.98828 6.23386 2.98828 5.08038C2.98828 3.92691 3.9269 2.98859 5.08008 2.98859C6.23326 2.98859 7.17188 3.92691 7.17188 5.08038C7.17188 6.23386 6.23326 7.17218 5.08008 7.17218Z" fill="#EEF2FD"/>
</svg>
