<svg width="14" height="14" viewBox="0 0 14 14" fill="none" xmlns="http://www.w3.org/2000/svg">
<path d="M13.6326 10.7997L10.7989 8.91001C10.4394 8.67213 9.95733 8.7504 9.69147 9.08988L8.86607 10.1511C8.75999 10.291 8.56716 10.3316 8.4137 10.2463L8.25669 10.1598C7.7362 9.87608 7.08858 9.52288 5.78374 8.21758C4.4789 6.91228 4.12499 6.26416 3.84129 5.74463L3.7552 5.58762C3.66878 5.43419 3.70858 5.24054 3.84851 5.13362L4.90907 4.30845C5.2484 4.04257 5.32679 3.56069 5.08918 3.20098L3.19946 0.367337C2.95595 0.00104052 2.46739 -0.108919 2.09041 0.117699L0.905479 0.829485C0.533168 1.04837 0.260018 1.40285 0.143306 1.81866C-0.283384 3.37335 0.0376103 6.05652 3.99015 10.0095C7.13432 13.1534 9.475 13.9989 11.0838 13.9989C11.4541 14.0005 11.8229 13.9523 12.1803 13.8557C12.5962 13.7391 12.9508 13.4659 13.1695 13.0935L13.882 11.9093C14.109 11.5322 13.9991 11.0434 13.6326 10.7997ZM13.48 11.6699L12.7692 12.8548C12.6121 13.1236 12.3571 13.3213 12.0576 13.4064C10.6223 13.8004 8.11485 13.474 4.32025 9.67943C0.52565 5.88483 0.199297 3.37756 0.593343 1.9421C0.678533 1.64224 0.876417 1.38691 1.14555 1.2296L2.33047 0.518743C2.49405 0.420321 2.70609 0.468028 2.81176 0.626981L3.83828 2.16814L4.69986 3.46038C4.80304 3.6164 4.76914 3.82552 4.62194 3.94098L3.56114 4.76614C3.23831 5.01299 3.14613 5.45964 3.34488 5.81413L3.42912 5.96717C3.72728 6.51402 4.09798 7.19431 5.45135 8.54746C6.80471 9.90058 7.48479 10.2713 8.03139 10.5694L8.18465 10.6539C8.53911 10.8526 8.98579 10.7605 9.23263 10.4376L10.0578 9.37683C10.1733 9.22972 10.3823 9.19585 10.5384 9.29892L13.3718 11.1886C13.5309 11.2942 13.5786 11.5064 13.48 11.6699Z" fill="#EEF2FD"/>
<path d="M7.93251 2.33404C10.1219 2.33647 11.8961 4.11073 11.8986 6.30012C11.8986 6.42897 12.003 6.53341 12.1319 6.53341C12.2607 6.53341 12.3652 6.42897 12.3652 6.30012C12.3625 3.85314 10.3795 1.87014 7.93251 1.86746C7.80366 1.86746 7.69922 1.9719 7.69922 2.10075C7.69922 2.2296 7.80366 2.33404 7.93251 2.33404Z" fill="#EEF2FD"/>
<path d="M7.93251 3.73382C9.34914 3.73549 10.4971 4.88348 10.4988 6.30011C10.4988 6.42896 10.6033 6.5334 10.7321 6.5334C10.8609 6.5334 10.9654 6.42896 10.9654 6.30011C10.9634 4.62588 9.6067 3.26916 7.93251 3.26724C7.80366 3.26724 7.69922 3.37168 7.69922 3.50053C7.69922 3.62938 7.80366 3.73382 7.93251 3.73382Z" fill="#EEF2FD"/>
<path d="M7.93251 5.13363C8.57641 5.1344 9.09821 5.6562 9.09901 6.30013C9.09901 6.42898 9.20347 6.53342 9.3323 6.53342C9.46112 6.53342 9.56559 6.42898 9.56559 6.30013C9.56455 5.39863 8.834 4.66806 7.93251 4.66705C7.80366 4.66705 7.69922 4.77149 7.69922 4.90034C7.69922 5.02919 7.80366 5.13363 7.93251 5.13363Z" fill="#EEF2FD"/>
</svg>
