<svg width="81" height="61" viewBox="0 0 81 61" fill="none" xmlns="http://www.w3.org/2000/svg">
<circle cx="25" cy="25" r="25" fill="#EF233A"/>
<path d="M55.5322 19.402C56.1391 19.402 56.6309 18.9101 56.6309 18.3033V15.0947C56.6309 14.488 56.1391 13.9961 55.5322 13.9961C54.9255 13.9961 54.4336 14.488 54.4336 15.0947V18.3033C54.4336 18.9101 54.9253 19.402 55.5322 19.402Z" fill="#EEF2FD"/>
<path d="M55.5322 24.0854C59.6052 24.0854 62.9188 20.7718 62.9188 16.699C62.9188 12.6261 59.6052 9.3125 55.5322 9.3125C51.4592 9.3125 48.1458 12.6261 48.1458 16.699C48.1458 20.7718 51.4592 24.0854 55.5322 24.0854ZM55.5322 11.5098C58.3937 11.5098 60.7216 13.8377 60.7216 16.699C60.7216 19.5604 58.3937 21.8882 55.5322 21.8882C52.6709 21.8882 50.343 19.5603 50.343 16.699C50.343 13.8376 52.6708 11.5098 55.5322 11.5098Z" fill="#EEF2FD"/>
<path d="M12.7234 25.6631C12.9379 25.8776 13.2191 25.9849 13.5002 25.9849C13.7813 25.9849 14.0626 25.8777 14.277 25.6631C14.7061 25.234 14.7061 24.5384 14.277 24.1095L12.9771 22.8096C12.5481 22.3805 11.8524 22.3805 11.4234 22.8096C10.9943 23.2386 10.9943 23.9343 11.4234 24.3632L12.7234 25.6631Z" fill="#EEF2FD"/>
<path d="M12.9771 54.8046L14.277 53.5047C14.706 53.0756 14.706 52.38 14.277 51.9509C13.8479 51.5219 13.1523 51.5219 12.7234 51.9509L11.4235 53.2508C10.9944 53.6799 10.9944 54.3756 11.4235 54.8045C11.6379 55.0189 11.9192 55.1263 12.2003 55.1263C12.4815 55.1264 12.7626 55.0192 12.9771 54.8046Z" fill="#EEF2FD"/>
<path d="M69.8624 58.0309H9.20903C8.65107 58.0309 8.19727 57.5769 8.19727 57.0189V44.4248C8.19727 43.8181 7.70537 44.3262 7.09863 44.3262C6.49189 44.3262 6 43.8181 6 44.4248V57.0189C6 58.7885 7.43965 60.2281 9.20903 60.2281H69.8624C70.4692 60.2281 72.961 59.7362 72.961 59.1295C72.961 58.5227 70.4691 58.0309 69.8624 58.0309Z" fill="#EEF2FD"/>
<path d="M69.9577 55.1263C70.2388 55.1263 70.5201 55.0191 70.7347 54.8045C71.1637 54.3754 71.1637 53.6797 70.7347 53.2508L69.4348 51.9509C69.0056 51.5219 68.3101 51.5219 67.8809 51.9509C67.4518 52.38 67.4518 53.0756 67.8809 53.5047L69.1808 54.8046C69.3954 55.0191 69.6766 55.1263 69.9577 55.1263Z" fill="#EEF2FD"/>
<path d="M25.4417 37.0889C25.4417 36.4821 24.9498 35.9902 24.3431 35.9902H16.1952C15.5885 35.9902 15.0966 36.4821 15.0966 37.0889C15.0966 37.6956 15.5885 38.1875 16.1952 38.1875H24.3431C24.9498 38.1875 25.4417 37.6956 25.4417 37.0889Z" fill="#EEF2FD"/>
<path d="M41.0791 25.3108C33.6374 25.3108 27.583 31.3651 27.583 38.807C27.583 46.2487 33.6374 52.303 41.0791 52.303C48.5209 52.303 54.5752 46.2487 54.5752 38.807C54.5751 31.3651 48.5208 25.3108 41.0791 25.3108ZM41.0791 50.1058C34.8489 50.1058 29.7803 45.0371 29.7803 38.807C29.7803 32.5767 34.8489 27.5081 41.0791 27.5081C47.3092 27.5081 52.378 32.5767 52.378 38.807C52.3778 45.0371 47.3092 50.1058 41.0791 50.1058Z" fill="#EEF2FD"/>
<path d="M69.6772 11.8937C68.4265 11.8937 67.2083 12.0949 66.0415 12.4922C64.3679 8.32632 60.2893 5.37598 55.5321 5.37598C49.2886 5.37598 44.2093 10.4553 44.2093 16.6988C44.2093 16.9296 44.2184 17.1584 44.2321 17.3859H9.20903C7.43965 17.3859 6 18.8256 6 20.5951V44.681C6 45.2877 6.49189 45.7796 7.09863 45.7796C7.70537 45.7796 8.19727 45.2877 8.19727 44.681V20.5951C8.19727 20.0372 8.65122 19.5833 9.20903 19.5833H44.583C44.7605 20.2566 44.999 20.9051 45.2914 21.5235H20.3568C19.75 21.5235 19.2582 22.0154 19.2582 22.6222C19.2582 27.0456 15.6595 30.6442 11.2361 30.6442C10.6293 30.6442 10.1375 31.1361 10.1375 31.7429V45.8713C10.1375 46.478 10.6293 46.9699 11.2361 46.9699C15.6595 46.9699 19.2582 50.5686 19.2582 54.992C19.2582 55.5987 19.75 56.0906 20.3568 56.0906H61.8013C62.4082 56.0906 62.9 55.5987 62.9 54.992C62.9 50.5686 66.4985 46.9699 70.922 46.9699C71.5289 46.9699 72.0207 46.478 72.0207 45.8713V34.2942C72.6913 34.1525 73.3395 33.9505 73.9608 33.6955V57.0187C73.9608 57.5767 73.5069 58.0307 72.9491 58.0307H70.1162C69.5093 58.0307 69.0176 58.5226 69.0176 59.1293C69.0176 59.736 69.5093 60.2279 70.1162 60.2279H72.9489C74.7185 60.2279 76.158 58.7883 76.158 57.0187V32.493C79.0825 30.4437 81 27.0508 81 23.2166C81 16.973 75.9207 11.8937 69.6772 11.8937ZM55.5322 7.57324C60.5643 7.57324 64.6579 11.6669 64.6579 16.6988C64.6579 21.7307 60.5643 25.8243 55.5322 25.8243C50.5005 25.8243 46.4067 21.7307 46.4067 16.6988C46.4067 11.6669 50.5003 7.57324 55.5322 7.57324ZM69.8232 44.8312C65.064 45.3422 61.2722 49.1339 60.7613 53.8932H21.3967C20.8857 49.1339 17.094 45.3422 12.3347 44.8312V32.7828C17.094 32.2718 20.8857 28.4799 21.3967 23.7207H46.6594C48.7352 26.338 51.9397 28.0217 55.5321 28.0217C56.8033 28.0217 58.0247 27.808 59.1664 27.42C60.8663 31.6654 65.0279 34.5394 69.6772 34.5394C69.7261 34.5394 69.7745 34.5363 69.8232 34.5357V44.8312ZM69.6772 32.3421C65.8964 32.3421 62.5156 29.9842 61.1695 26.5122C61.6912 26.2113 62.1875 25.8713 62.6525 25.494C63.6164 28.4544 66.4039 30.6029 69.6772 30.6029C73.7502 30.6029 77.0637 27.2893 77.0637 23.2165C77.0637 22.4692 76.9522 21.7317 76.7326 21.0243C76.5526 20.445 75.9378 20.1209 75.3574 20.301C74.7781 20.481 74.4542 21.0965 74.6339 21.676C74.7882 22.1723 74.8663 22.6906 74.8663 23.2166C74.8663 26.0779 72.5383 28.4058 69.6771 28.4058C66.9472 28.4058 64.6986 26.2787 64.5035 23.5953C65.5222 22.2732 66.2565 20.7221 66.612 19.0323C67.4984 18.3826 68.5727 18.0274 69.6771 18.0274C70.5961 18.0274 71.499 18.2706 72.2876 18.7307C72.8118 19.0362 73.4845 18.8593 73.7902 18.3352C74.0959 17.811 73.9188 17.1384 73.3948 16.8327C72.2704 16.1769 70.9849 15.8301 69.6771 15.8301C68.6994 15.8301 67.738 16.0254 66.8473 16.3951C66.8312 15.7857 66.7671 15.1882 66.6579 14.6062C67.6252 14.2655 68.6367 14.0911 69.6771 14.0911C74.7089 14.0911 78.8026 18.1847 78.8026 23.2166C78.8026 28.2485 74.7091 32.3421 69.6772 32.3421Z" fill="#EEF2FD"/>
<path d="M24.343 40.0542H20.2692C19.6624 40.0542 19.1705 40.5461 19.1705 41.1528C19.1705 41.7596 19.6624 42.2515 20.2692 42.2515H24.3432C24.9499 42.2515 25.4418 41.7596 25.4418 41.1528C25.4418 40.5461 24.9498 40.0542 24.343 40.0542Z" fill="#EEF2FD"/>
<path d="M69.677 20.5134C69.0703 20.5134 68.5784 21.0053 68.5784 21.6121V24.8207C68.5784 25.4274 69.0703 25.9193 69.677 25.9193C70.2839 25.9193 70.7756 25.4274 70.7756 24.8207V21.6121C70.7756 21.0053 70.2839 20.5134 69.677 20.5134Z" fill="#EEF2FD"/>
<path d="M65.963 35.9902H57.8151C57.2082 35.9902 56.7164 36.4821 56.7164 37.0889C56.7164 37.6956 57.2082 38.1875 57.8151 38.1875H65.963C66.5698 38.1875 67.0616 37.6956 67.0616 37.0889C67.0616 36.4821 66.5697 35.9902 65.963 35.9902Z" fill="#EEF2FD"/>
<path d="M61.8888 40.0542H57.8148C57.2079 40.0542 56.7162 40.5461 56.7162 41.1528C56.7162 41.7596 57.2079 42.2515 57.8148 42.2515H61.8888C62.4957 42.2515 62.9875 41.7596 62.9875 41.1528C62.9875 40.5461 62.4957 40.0542 61.8888 40.0542Z" fill="#EEF2FD"/>
</svg>
