<svg width="94" height="80" viewBox="0 0 94 80" fill="none" xmlns="http://www.w3.org/2000/svg">
<circle cx="69" cy="46.7251" r="25" fill="#EF233A"/>
<path d="M9.16152 53.9253H28.733C29.7965 53.9253 30.6612 53.0653 30.6612 52.0076V48.7263C30.6612 47.6686 29.7965 46.8086 28.733 46.8086H9.16152C8.09798 46.8086 7.23328 47.6686 7.23328 48.7263V52.0076C7.23328 53.0653 8.09798 53.9253 9.16152 53.9253ZM9.58988 49.1523H28.3046V51.5815H9.58988V49.1523Z" fill="#EEF2FD"/>
<path d="M8.41158 59.9664H29.4829C30.134 59.9664 30.6612 59.4415 30.6612 58.7939C30.6612 58.147 30.134 57.6221 29.4829 57.6221H8.41158C7.76044 57.6221 7.23328 58.147 7.23328 58.7939C7.23328 59.4415 7.76044 59.9664 8.41158 59.9664Z" fill="#EEF2FD"/>
<path d="M8.41158 64.3665H29.4829C30.134 64.3665 30.6612 63.8416 30.6612 63.1946C30.6612 62.547 30.134 62.0227 29.4829 62.0227H8.41158C7.76044 62.0227 7.23328 62.547 7.23328 63.1946C7.23328 63.8416 7.76044 64.3665 8.41158 64.3665Z" fill="#EEF2FD"/>
<path d="M8.41158 68.7666H29.4829C30.134 68.7666 30.6612 68.2417 30.6612 67.5947C30.6612 66.9478 30.134 66.4229 29.4829 66.4229H8.41158C7.76044 66.4229 7.23328 66.9478 7.23328 67.5947C7.23328 68.2417 7.76044 68.7666 8.41158 68.7666Z" fill="#EEF2FD"/>
<path d="M8.41158 73.1665H29.4829C30.134 73.1665 30.6612 72.6422 30.6612 71.9946C30.6612 71.3477 30.134 70.8228 29.4829 70.8228H8.41158C7.76044 70.8228 7.23328 71.3477 7.23328 71.9946C7.23328 72.6422 7.76044 73.1665 8.41158 73.1665Z" fill="#EEF2FD"/>
<path d="M61.5775 57.6221H54.0039C53.3533 57.6221 52.8256 58.147 52.8256 58.7939C52.8256 59.4415 53.3533 59.9664 54.0039 59.9664H61.5775C62.2286 59.9664 62.7564 59.4415 62.7564 58.7939C62.7564 58.147 62.2286 57.6221 61.5775 57.6221Z" fill="#EEF2FD"/>
<path d="M61.5775 62.0227H54.0039C53.3533 62.0227 52.8256 62.547 52.8256 63.1946C52.8256 63.8416 53.3533 64.3665 54.0039 64.3665H61.5775C62.2286 64.3665 62.7564 63.8416 62.7564 63.1946C62.7564 62.547 62.2286 62.0227 61.5775 62.0227Z" fill="#EEF2FD"/>
<path d="M61.5775 48.822H54.0039C53.3533 48.822 52.8256 49.3469 52.8256 49.9939C52.8256 50.6409 53.3533 51.1658 54.0039 51.1658H61.5775C62.2286 51.1658 62.7564 50.6409 62.7564 49.9939C62.7564 49.3469 62.2286 48.822 61.5775 48.822Z" fill="#EEF2FD"/>
<path d="M61.5775 53.2222H54.0039C53.3533 53.2222 52.8256 53.7471 52.8256 54.394C52.8256 55.0416 53.3533 55.5659 54.0039 55.5659H61.5775C62.2286 55.5659 62.7564 55.0416 62.7564 54.394C62.7564 53.7471 62.2286 53.2222 61.5775 53.2222Z" fill="#EEF2FD"/>
<path d="M61.5775 66.4229H54.0039C53.3533 66.4229 52.8256 66.9478 52.8256 67.5947C52.8256 68.2417 53.3533 68.7666 54.0039 68.7666H61.5775C62.2286 68.7666 62.7564 68.2417 62.7564 67.5947C62.7564 66.9478 62.2286 66.4229 61.5775 66.4229Z" fill="#EEF2FD"/>
<path d="M61.5775 70.8228H54.0039C53.3533 70.8228 52.8256 71.3477 52.8256 71.9946C52.8256 72.6422 53.3533 73.1665 54.0039 73.1665H61.5775C62.2286 73.1665 62.7564 72.6422 62.7564 71.9946C62.7564 71.3477 62.2286 70.8228 61.5775 70.8228Z" fill="#EEF2FD"/>
<path d="M41.9496 73.1665C43.1267 73.1665 44.0841 72.2144 44.0841 71.0437V64.1455C44.0841 62.9749 43.1267 62.0227 41.9496 62.0227H35.0136C33.8365 62.0227 32.8792 62.9749 32.8792 64.1455V71.0437C32.8792 72.2144 33.8365 73.1665 35.0136 73.1665H41.9496ZM35.2358 64.3665H41.7275V70.8228H35.2358V64.3665Z" fill="#EEF2FD"/>
<path d="M59.5633 16.435C59.1963 15.9003 58.4635 15.7624 57.9259 16.1274L51.6699 20.373C51.1323 20.7374 50.9936 21.4667 51.3606 22.0014C51.7269 22.5355 52.4603 22.6734 52.9979 22.3084L59.254 18.0634C59.7916 17.6984 59.9303 16.9697 59.5633 16.435Z" fill="#EEF2FD"/>
<path d="M62.0568 20.0698C61.6904 19.5351 60.957 19.3978 60.4194 19.7621L54.1634 24.0077C53.6258 24.3721 53.4871 25.1015 53.8541 25.6362C54.2211 26.1702 54.9538 26.3082 55.4914 25.9438L61.7475 21.6982C62.2851 21.3332 62.4238 20.6044 62.0568 20.0698Z" fill="#EEF2FD"/>
<path d="M54.5764 9.16517C54.2094 8.63111 53.4766 8.49256 52.939 8.85816L46.6824 13.1032C46.1454 13.4681 46.0067 14.1969 46.3731 14.7316C46.7407 15.2669 47.474 15.4036 48.011 15.0392L54.2671 10.7936C54.8047 10.4292 54.9434 9.69984 54.5764 9.16517Z" fill="#EEF2FD"/>
<path d="M57.0699 12.8005C56.7029 12.2658 55.9701 12.1279 55.4325 12.4929L49.1759 16.7379C48.6389 17.1029 48.5002 17.8322 48.8672 18.3663C49.2342 18.9016 49.9676 19.0383 50.5045 18.6739L56.7606 14.4289C57.2982 14.0639 57.4369 13.3345 57.0699 12.8005Z" fill="#EEF2FD"/>
<path d="M57.9849 29.5783L64.2415 25.3327C64.7791 24.9683 64.9172 24.239 64.5508 23.7043C64.1838 23.1696 63.4511 23.0317 62.9135 23.3967L56.6568 27.6423C56.1192 28.0067 55.9805 28.736 56.3475 29.2707C56.7145 29.806 57.4479 29.9427 57.9849 29.5783Z" fill="#EEF2FD"/>
<path d="M58.841 32.9052C59.208 33.4399 59.9408 33.5778 60.479 33.2128L66.735 28.9672C67.2726 28.6028 67.4113 27.8735 67.0443 27.3388C66.6773 26.8041 65.9446 26.6668 65.407 27.0312L59.1503 31.2768C58.6127 31.6412 58.4746 32.3705 58.841 32.9052Z" fill="#EEF2FD"/>
<path d="M0.516948 38.8617L2.53602 41.8042C1.77319 42.3413 1.27241 43.2239 1.27241 44.2218V77.038C1.27241 78.6713 2.60843 80 4.25008 80H26.7335C27.384 80 27.9118 79.4751 27.9118 78.8281C27.9118 78.1812 27.384 77.6563 26.7335 77.6563H4.25069C3.91377 77.6563 3.62901 77.3731 3.62901 77.038V44.2218C3.62901 43.8867 3.91377 43.6041 4.25069 43.6041H43.7808C44.1914 45.0488 45.3286 46.1481 46.7518 46.5405V74.7199C45.328 75.1123 44.1914 76.2116 43.7808 77.6563H26.2323C25.5817 77.6563 27.054 78.1812 27.054 78.8281C27.054 79.4751 25.5817 80 26.2323 80H44.2387C45.1132 80 45.8539 79.372 46.0006 78.5059C46.1571 77.5787 46.958 76.9061 47.9049 76.9049C47.9104 76.9055 47.9159 76.9061 47.9215 76.9061C48.8592 76.9128 49.6576 77.5818 49.8141 78.5059C49.9608 79.3713 50.7015 80 51.576 80H65.3229C66.9651 80 68.3012 78.6713 68.3012 77.038V58.2633C68.3012 57.6157 67.7734 58.0914 67.1229 58.0914C66.4717 58.0914 65.9446 57.6157 65.9446 58.2633V77.038C65.9446 77.3731 65.6598 77.6563 65.3229 77.6563H52.0345C51.6386 76.2671 50.5377 75.1422 49.1084 74.7308V46.5296C50.4886 46.1322 51.6221 45.0433 52.0345 43.6041H65.3229C65.6598 43.6041 65.9446 43.8867 65.9446 44.2218V58.794C65.9446 59.4415 66.4717 59.9664 67.1229 59.9664C67.7734 59.9664 68.3012 59.4415 68.3012 58.794V44.2218C68.3012 42.5891 66.9651 41.2604 65.3229 41.2604H56.7188C56.7311 40.6561 57.03 40.0794 57.5596 39.7193C57.5639 39.7162 57.5688 39.7144 57.5731 39.7113C58.3549 39.1889 59.3933 39.2987 60.0438 39.9719C60.6532 40.603 61.626 40.7068 62.3458 40.2185L73.7011 32.5128C75.0598 31.5906 75.4072 29.7443 74.4829 28.3972L55.8854 1.28969C54.9403 -0.0884798 53.0704 -0.385721 51.7473 0.512106L40.3914 8.21779C39.6697 8.7079 39.4138 9.64174 39.7832 10.4395C40.176 11.2866 39.8998 12.2888 39.1265 12.8223C39.1216 12.8253 39.1173 12.829 39.1124 12.8327C38.3294 13.3618 37.2873 13.255 36.6331 12.5775C36.0212 11.944 35.0534 11.8402 34.3305 12.331L1.2988 34.7455C-0.0574735 35.6659 -0.408509 37.5122 0.516948 38.8617ZM10.1815 38.2715L25.6411 27.7814L27.0177 29.7882L11.5586 40.2783L10.1815 38.2715ZM44.4234 41.2702L44.4179 41.2695C44.3589 41.264 44.2994 41.2604 44.2387 41.2604H43.2782L39.9882 36.4642L45.3507 32.8247L49.0096 38.158L44.4234 41.2702ZM42.0981 9.89687L53.0753 2.44814C53.3539 2.25893 53.7473 2.33034 53.9388 2.61049L72.5357 29.718C72.7271 29.9964 72.6535 30.3864 72.373 30.5768L61.3958 38.0255C60.2746 37.0935 58.7207 36.7932 57.3209 37.2492L41.3389 13.9533C42.2761 12.8253 42.5639 11.2873 42.0981 9.89687ZM2.62746 36.6815L35.2805 14.5233C36.4386 15.4865 38.001 15.7575 39.399 15.2838L55.3675 38.5596C54.7206 39.3201 54.3659 40.2747 54.3585 41.2604H51.576C50.7015 41.2604 49.9602 41.8884 49.8141 42.7545C49.6582 43.6762 48.8616 44.3475 47.9215 44.3543C47.9159 44.3543 47.911 44.3549 47.9055 44.3549C47.0433 44.3543 46.3044 43.7964 46.0601 42.9974L50.5211 39.9695C51.4938 39.3097 51.7448 37.9865 51.0814 37.0197L47.1721 31.3214C46.5057 30.3504 45.1782 30.1044 44.2055 30.7642L38.476 34.6521C37.5015 35.3137 37.2511 36.6327 37.9157 37.6019L40.4251 41.2604H32.9196L35.2357 39.6881C35.7733 39.3237 35.912 38.5944 35.545 38.0597C35.178 37.525 34.4453 37.3877 33.9077 37.7521L28.7379 41.2604H25.0698L32.7422 36.0535C33.2798 35.6891 33.4185 34.9597 33.0516 34.4251C32.6846 33.8904 31.9518 33.7531 31.4142 34.1174L20.8881 41.2604H14.2926L28.6992 31.4838C29.1245 31.1951 29.4117 30.7593 29.5074 30.2558C29.6032 29.7522 29.4958 29.242 29.2055 28.819L27.346 26.1084C26.7464 25.235 25.5442 25.0092 24.666 25.6055L8.49932 36.5759C7.62112 37.1716 7.39467 38.3673 7.99363 39.2407L9.37875 41.2604H5.01597L2.46421 37.5403C2.27335 37.2626 2.34638 36.8726 2.62746 36.6815Z" fill="#EEF2FD"/>
</svg>
