<svg width="75" height="61" viewBox="0 0 75 61" fill="none" xmlns="http://www.w3.org/2000/svg">
<circle cx="44" cy="25" r="25" fill="#EF233A"/>
<path d="M73.0425 27.3896C74.2132 26.9227 75 25.6615 75 24.251V17.7067C75 16.33 73.9866 15.2085 72.7415 15.2085H42.5634C41.95 15.2085 43.4521 15.7063 43.4521 16.3197C43.4521 16.9348 41.95 17.4315 42.5634 17.4315H72.694C72.7238 17.467 72.777 17.5574 72.777 17.7067V24.251C72.777 24.8095 72.4972 25.2141 72.2202 25.3239C69.5189 26.3997 67.7032 29.8609 67.7032 33.935C67.7032 38.0086 69.5189 41.4687 72.2202 42.5461C72.4972 42.6554 72.777 43.06 72.777 43.619V50.1628C72.777 50.3121 72.7238 50.4025 72.694 50.4368H63.0323C62.7108 49.6157 62.1031 48.9577 61.3266 48.6481C59.5207 47.9294 58.2104 45.176 58.2104 42.1027C58.2104 39.0294 59.5207 36.2759 61.3266 35.5572C62.4973 35.0909 63.2847 33.8298 63.2847 32.4187V25.875C63.2847 24.4982 62.2707 23.3779 61.0262 23.3779H14.0291C9.41569 23.3779 16.9179 23.8745 16.9179 24.4897C16.9179 25.1031 14.4157 25.6009 15.0291 25.6009H60.9787C61.0085 25.6346 61.0617 25.725 61.0617 25.875V32.4187C61.0617 32.9789 60.7813 33.3823 60.5043 33.4916C57.803 34.569 55.9879 38.0292 55.9879 42.1027C55.9879 45.5285 57.407 49.475 60.5043 50.7138C60.7813 50.8237 61.0617 51.2282 61.0617 51.7867V58.3304C61.0617 58.4803 61.0085 58.5707 60.977 58.6062H2.30598C2.27623 58.5707 2.22301 58.4803 2.22301 58.3304V51.7867C2.22301 51.2282 2.50282 50.8237 2.77977 50.7138C5.48115 49.638 7.29675 46.1762 7.29675 42.1027C7.29675 38.0292 5.48115 34.569 2.77977 33.4916C2.50282 33.3823 2.22301 32.9777 2.22301 32.4187V25.875C2.22301 25.725 2.27623 25.6346 2.30598 25.6009H16.5836C17.197 25.6009 17.6949 25.1031 17.6949 24.4897C17.6949 23.8745 17.197 23.3779 16.5836 23.3779H13.9383V17.7067C13.9383 17.5574 13.9915 17.467 14.023 17.4315H43.1179C43.7313 17.4315 44.2291 16.9348 44.2291 16.3197C44.2291 15.7063 43.7313 15.2085 43.1179 15.2085H13.9738C12.7293 15.2085 11.7153 16.33 11.7153 17.7067V23.3779H2.25849C1.01337 23.3779 0 24.4982 0 25.875V32.4187C0 33.8298 0.786781 35.0909 1.95751 35.5572C3.76225 36.2759 5.07374 39.0294 5.07374 42.1027C5.07374 45.176 3.76225 47.9294 1.95751 48.6481C0.786781 49.1151 0 50.3762 0 51.7867V58.3304C0 59.7071 1.01337 60.8292 2.25849 60.8292H61.0262C62.2707 60.8292 63.2847 59.7071 63.2847 58.3304V52.6599H72.7415C73.9866 52.6599 75 51.5395 75 50.1628V43.619C75 42.208 74.2132 40.9468 73.0425 40.4799C71.2378 39.7612 69.9263 37.0083 69.9263 33.935C69.9263 30.8612 71.2378 28.1083 73.0425 27.3896Z" fill="#EEF2FD"/>
<path d="M31.8152 29.2488H14.4047C14.1031 29.2488 13.8148 29.3712 13.6053 29.5881C13.242 29.964 13.2975 30.368 13.2975 30.6387C13.2975 33.8247 11.5093 36.5175 9.38361 36.5278C8.75075 36.4946 8.21631 37.0016 8.21631 37.6379V46.5248C8.21631 47.1542 8.74159 47.6669 9.38532 47.6349C11.9002 47.6417 13.3776 50.9983 13.2923 53.813C13.274 54.4401 13.7776 54.9574 14.4036 54.9574H48.9275C49.5547 54.9574 50.0565 54.4384 50.0382 53.813C49.9455 50.7408 51.5986 47.6349 53.9566 47.6349C54.5706 47.6349 55.0684 47.137 55.0684 46.5231V37.6396C55.0684 37.0256 54.5655 36.5278 53.9515 36.5278C51.4555 36.5278 49.9352 33.1604 50.037 30.4006C50.0593 29.7718 49.5558 29.2488 48.9264 29.2488H31.2606C30.6472 29.2488 32.1494 29.7466 32.1494 30.3606C32.1494 30.974 30.6472 31.4718 31.2606 31.4718H47.842C47.9782 33.2611 48.5522 34.9291 49.4923 36.2377C50.4004 37.5017 51.5631 38.3228 52.8454 38.6226V45.5394C51.5648 45.8387 50.4009 46.6604 49.4923 47.9244C48.5441 49.2433 47.9685 50.9285 47.8386 52.7343H15.4919C15.362 50.9285 14.7858 49.2433 13.8376 47.9244C12.9181 46.6449 11.7371 45.8198 10.4388 45.5286V38.6335C11.7371 38.3428 12.9181 37.5171 13.8376 36.2377C14.7784 34.9291 15.3523 33.2605 15.4885 31.4718H31.8152C32.4291 31.4718 32.927 30.974 32.927 30.36C32.927 29.7466 32.4291 29.2488 31.8152 29.2488Z" fill="#EEF2FD"/>
<path d="M27.3564 35.3981L24.183 46.4274L20.9901 35.3981C20.8934 35.0886 20.6227 34.9724 20.2742 34.9724C19.7135 34.9724 18.9971 35.3209 18.9971 35.8239C18.9971 35.8822 18.9971 35.94 19.0165 35.9984L22.8863 48.5365C23.0414 49.0012 23.6022 49.2335 24.183 49.2335C24.7632 49.2335 25.344 49.0012 25.4796 48.5365L29.3105 35.9984C29.3299 35.94 29.3494 35.8822 29.3494 35.8239C29.3494 35.3403 28.6336 34.9724 28.0528 34.9724C27.7238 34.9724 27.4531 35.0886 27.3564 35.3981Z" fill="#EEF2FD"/>
<path d="M30.8779 35.6304V48.4398C30.8779 48.885 31.4004 49.1173 31.9033 49.1173C32.4257 49.1173 32.9287 48.885 32.9287 48.4398V35.6304C32.9287 35.1658 32.4257 34.9724 31.9033 34.9724C31.4004 34.9724 30.8779 35.1658 30.8779 35.6304Z" fill="#EEF2FD"/>
<path d="M37.5338 48.4398V43.6608H39.933C42.3712 43.6608 44.2869 42.4803 44.2869 39.3841V39.229C44.2869 36.114 42.429 34.9724 40.0492 34.9724H36.2761C35.7926 34.9724 35.4824 35.282 35.4824 35.6299V48.4398C35.4824 48.8844 36.0048 49.1167 36.5084 49.1167C37.0308 49.1173 37.5338 48.885 37.5338 48.4398ZM37.5338 36.7915H39.933C41.3653 36.7915 42.2356 37.5845 42.2356 39.2874V39.5197C42.2356 41.2226 41.3653 42.0351 39.933 42.0351H37.5338V36.7915Z" fill="#EEF2FD"/>
</svg>
